Genre:Drama
Language:English  http://www.imdb.com/title/tt1447972/
Source:KTH
Subtitles:no
Sample;Yes

General
Complete name : Street.Dance.3D.2010.DVDScr.H264.FEEL-FREE
Format : MPEG-4
Format profile : Base Media
Codec ID : isom
File size : 964 MiB
Duration : 1h 38mn
Overall bit rate : 1 369 Kbps
Video #1
Codec ID : 20
Duration : 1h 38mn
Bit rate mode : Variable
Bit rate : 1 199 Kbps
Width : 652 pixels
Height : 352 pixels
Display aspect ratio : 1.852
Frame rate mode : Constant
Frame rate : 23.976 fps
Resolution : 24 bits
Colorimetry : 4:2:0
Scan type : Progressive
Bits/(Pixel*Frame) : 0.218
Stream size : 844 MiB (88%)
Audio #2
ID : 2
Format : AAC
Format/Info : Advanced Audio Codec
Format version : Version 4
Format profile : LC
Format settings, SBR : No
Codec ID : 40
Duration : 1h 38mn
Bit rate mode : Variable
Bit rate : 165 Kbps
Channel(s) : 2 channels
Channel positions : L R
Sampling rate : 48.0 KHz
Resolution : 16 bits
Stream size : 116 MiB (12%)

Plot
In order to win the Street Dance Championships, a dance crew is forced to work with ballet dancers from the Royal Dance School in exchange for rehearsal space